<svg width="23" height="24" viewBox="0 0 23 24" fill="none" xmlns="http://www.w3.org/2000/svg">
<path d="M5.11288 12.858C4.64746 13.1124 4.30219 13.5414 4.15302 14.0504C4.00385 14.5594 4.063 15.1068 4.31746 15.5723C4.57191 16.0377 5.00083 16.3829 5.50986 16.5321C6.01888 16.6813 6.56632 16.6221 7.03173 16.3677C7.49715 16.1132 7.84242 15.6843 7.99159 15.1753C8.14076 14.6662 8.08161 14.1188 7.82716 13.6534C7.5727 13.188 7.14378 12.8427 6.63475 12.6935C6.12573 12.5444 5.57829 12.6035 5.11288 12.858Z" stroke="#B4FF99" stroke-width="1.5" stroke-linecap="round" stroke-linejoin="round"/>
<path d="M15.4903 15.1622C15.0248 15.4167 14.6796 15.8456 14.5304 16.3546C14.3812 16.8637 14.4404 17.4111 14.6948 17.8765C14.9493 18.3419 15.3782 18.6872 15.8872 18.8364C16.3963 18.9855 16.9437 18.9264 17.4091 18.6719C17.8745 18.4175 18.2198 17.9886 18.369 17.4795C18.5181 16.9705 18.459 16.4231 18.2045 15.9577C17.9501 15.4922 17.5212 15.147 17.0121 14.9978C16.5031 14.8486 15.9557 14.9078 15.4903 15.1622Z" stroke="#B4FF99" stroke-width="1.5" stroke-linecap="round" stroke-linejoin="round"/>
<path d="M8.77425 2.87829C8.30884 3.13274 7.96357 3.56166 7.8144 4.07069C7.66523 4.57972 7.72438 5.12715 7.97883 5.59257C8.23329 6.05798 8.66221 6.40325 9.17124 6.55242C9.68026 6.70159 10.2277 6.64244 10.6931 6.38799C11.1585 6.13353 11.5038 5.70461 11.653 5.19558C11.8021 4.68656 11.743 4.13912 11.4885 3.67371C11.2341 3.20829 10.8052 2.86302 10.2961 2.71385C9.7871 2.56468 9.23967 2.62383 8.77425 2.87829Z" stroke="#B4FF99" stroke-width="1.5" stroke-linecap="round" stroke-linejoin="round"/>
<path d="M15.6419 7.1014C15.1765 7.35586 14.8312 7.78478 14.6821 8.2938C14.5329 8.80283 14.5921 9.35026 14.8465 9.81568C15.101 10.2811 15.5299 10.6264 16.0389 10.7755C16.5479 10.9247 17.0954 10.8656 17.5608 10.6111C18.0262 10.3566 18.3715 9.92772 18.5206 9.4187C18.6698 8.90967 18.6107 8.36224 18.3562 7.89682C18.1018 7.43141 17.6728 7.08614 17.1638 6.93697C16.6548 6.7878 16.1073 6.84695 15.6419 7.1014Z" stroke="#B4FF99" stroke-width="1.5" stroke-linecap="round" stroke-linejoin="round"/>
<path d="M7.82712 13.6534L14.8465 9.81569" stroke="#B4FF99" stroke-width="1.5" stroke-linecap="round" stroke-linejoin="round"/>
<path d="M14.4987 16.4839L8.02323 15.046" stroke="#B4FF99" stroke-width="1.5" stroke-linecap="round" stroke-linejoin="round"/>
<path d="M9.04536 6.50932L6.76144 12.7339" stroke="#B4FF99" stroke-width="1.5" stroke-linecap="round" stroke-linejoin="round"/>
</svg>
